{
  "asset": {
    "generator": "Khronos glTF Blender I/O v5.1.19",
    "version": "2.0"
  },
  "scene": 0,
  "scenes": [
    {
      "name": "Scene",
      "nodes": [
        0,
        1,
        5
      ]
    }
  ],
  "nodes": [
    {
      "mesh": 0,
      "name": "metal_toolbox",
      "translation": [
        -0.0001489296555519104,
        0.0006703957915306091,
        0
      ]
    },
    {
      "mesh": 1,
      "name": "metal_toolbox_tray",
      "translation": [
        0,
        0.15213841199874878,
        0
      ]
    },
    {
      "mesh": 2,
      "name": "metal_toolbox_handle",
      "translation": [
        0,
        0.08566431701183319,
        0.1030561551451683
      ]
    },
    {
      "mesh": 3,
      "name": "metal_toolbox_handle_latch_l",
      "translation": [
        -0.11792459338903427,
        0.00807546079158783,
        0.20997348427772522
      ]
    },
    {
      "mesh": 4,
      "name": "metal_toolbox_handle_latch_r",
      "translation": [
        0.11794313043355942,
        0.008075451478362083,
        0.2103140950202942
      ]
    },
    {
      "children": [
        2,
        3,
        4
      ],
      "mesh": 5,
      "name": "metal_toolbox_lid",
      "rotation": [
        -0.4733262360095978,
        0,
        0,
        0.8808872103691101
      ],
      "translation": [
        -0.000009275972843170166,
        0.1195942610502243,
        -0.10313405096530914
      ]
    }
  ],
  "materials": [
    {
      "doubleSided": true,
      "name": "metal_toolbox",
      "normalTexture": {
        "index": 0
      },
      "pbrMetallicRoughness": {
        "baseColorTexture": {
          "index": 1
        },
        "metallicRoughnessTexture": {
          "index": 2
        }
      }
    }
  ],
  "meshes": [
    {
      "name": "Cube.012",
      "primitives": [
        {
          "attributes": {
            "POSITION": 0,
            "NORMAL": 1,
            "TEXCOORD_0": 2
          },
          "indices": 3,
          "material": 0
        }
      ]
    },
    {
      "name": "Cube.013",
      "primitives": [
        {
          "attributes": {
            "POSITION": 4,
            "NORMAL": 5,
            "TEXCOORD_0": 6
          },
          "indices": 7,
          "material": 0
        }
      ]
    },
    {
      "name": "Cylinder.021",
      "primitives": [
        {
          "attributes": {
            "POSITION": 8,
            "NORMAL": 9,
            "TEXCOORD_0": 10
          },
          "indices": 11,
          "material": 0
        }
      ]
    },
    {
      "name": "Cylinder.003",
      "primitives": [
        {
          "attributes": {
            "POSITION": 12,
            "NORMAL": 13,
            "TEXCOORD_0": 14
          },
          "indices": 15,
          "material": 0
        }
      ]
    },
    {
      "name": "Cylinder.006",
      "primitives": [
        {
          "attributes": {
            "POSITION": 16,
            "NORMAL": 17,
            "TEXCOORD_0": 18
          },
          "indices": 19,
          "material": 0
        }
      ]
    },
    {
      "name": "Cylinder.015",
      "primitives": [
        {
          "attributes": {
            "POSITION": 20,
            "NORMAL": 21,
            "TEXCOORD_0": 22
          },
          "indices": 23,
          "material": 0
        }
      ]
    }
  ],
  "textures": [
    {
      "sampler": 0,
      "source": 0
    },
    {
      "sampler": 0,
      "source": 1
    },
    {
      "sampler": 0,
      "source": 2
    }
  ],
  "images": [
    {
      "mimeType": "image/jpeg",
      "name": "metal_toolbox_nor_gl",
      "uri": "textures/metal_toolbox_nor_gl_2k.jpg"
    },
    {
      "mimeType": "image/jpeg",
      "name": "metal_toolbox_diff",
      "uri": "textures/metal_toolbox_diff_2k.jpg"
    },
    {
      "mimeType": "image/jpeg",
      "name": "metal_toolbox_metal-metal_toolbox_rough",
      "uri": "textures/metal_toolbox_arm_2k.jpg"
    }
  ],
  "accessors": [
    {
      "bufferView": 0,
      "componentType": 5126,
      "count": 4083,
      "max": [
        0.20014899969100952,
        0.12143678218126297,
        0.11380399018526077
      ],
      "min": [
        -0.1998511254787445,
        -0.0006703957915306091,
        -0.10565546154975891
      ],
      "type": "VEC3"
    },
    {
      "bufferView": 1,
      "componentType": 5126,
      "count": 4083,
      "type": "VEC3"
    },
    {
      "bufferView": 2,
      "componentType": 5126,
      "count": 4083,
      "type": "VEC2"
    },
    {
      "bufferView": 3,
      "componentType": 5123,
      "count": 11925,
      "type": "SCALAR"
    },
    {
      "bufferView": 4,
      "componentType": 5126,
      "count": 170,
      "max": [
        0.19316866993904114,
        0.035882994532585144,
        0.09332501888275146
      ],
      "min": [
        -0.19316866993904114,
        -0.05100996419787407,
        -0.09332501888275146
      ],
      "type": "VEC3"
    },
    {
      "bufferView": 5,
      "componentType": 5126,
      "count": 170,
      "type": "VEC3"
    },
    {
      "bufferView": 6,
      "componentType": 5126,
      "count": 170,
      "type": "VEC2"
    },
    {
      "bufferView": 7,
      "componentType": 5123,
      "count": 408,
      "type": "SCALAR"
    },
    {
      "bufferView": 8,
      "componentType": 5126,
      "count": 2390,
      "max": [
        0.08826681226491928,
        0.019392801448702812,
        0.0019598049111664295
      ],
      "min": [
        -0.08826681971549988,
        -0.00974997878074646,
        -0.04949367791414261
      ],
      "type": "VEC3"
    },
    {
      "bufferView": 9,
      "componentType": 5126,
      "count": 2390,
      "type": "VEC3"
    },
    {
      "bufferView": 10,
      "componentType": 5126,
      "count": 2390,
      "type": "VEC2"
    },
    {
      "bufferView": 11,
      "componentType": 5123,
      "count": 11046,
      "type": "SCALAR"
    },
    {
      "bufferView": 12,
      "componentType": 5126,
      "count": 212,
      "max": [
        0.012720995582640171,
        0.006732132285833359,
        0.008262255229055882
      ],
      "min": [
        -0.010982025414705276,
        -0.03917273133993149,
        -0.0016482406063005328
      ],
      "type": "VEC3"
    },
    {
      "bufferView": 13,
      "componentType": 5126,
      "count": 212,
      "type": "VEC3"
    },
    {
      "bufferView": 14,
      "componentType": 5126,
      "count": 212,
      "type": "VEC2"
    },
    {
      "bufferView": 15,
      "componentType": 5123,
      "count": 576,
      "type": "SCALAR"
    },
    {
      "bufferView": 16,
      "componentType": 5126,
      "count": 212,
      "max": [
        0.013112541288137436,
        0.006777667906135321,
        0.007921606302261353
      ],
      "min": [
        -0.01078210398554802,
        -0.03945206105709076,
        -0.001988873817026615
      ],
      "type": "VEC3"
    },
    {
      "bufferView": 17,
      "componentType": 5126,
      "count": 212,
      "type": "VEC3"
    },
    {
      "bufferView": 18,
      "componentType": 5126,
      "count": 212,
      "type": "VEC2"
    },
    {
      "bufferView": 19,
      "componentType": 5123,
      "count": 576,
      "type": "SCALAR"
    },
    {
      "bufferView": 20,
      "componentType": 5126,
      "count": 4918,
      "max": [
        0.2000001221895218,
        0.08869991451501846,
        0.21412305533885956
      ],
      "min": [
        -0.20000053942203522,
        -0.00255153002217412,
        -0.002580755390226841
      ],
      "type": "VEC3"
    },
    {
      "bufferView": 21,
      "componentType": 5126,
      "count": 4918,
      "type": "VEC3"
    },
    {
      "bufferView": 22,
      "componentType": 5126,
      "count": 4918,
      "type": "VEC2"
    },
    {
      "bufferView": 23,
      "componentType": 5123,
      "count": 18153,
      "type": "SCALAR"
    }
  ],
  "bufferViews": [
    {
      "buffer": 0,
      "byteLength": 48996,
      "byteOffset": 0,
      "target": 34962
    },
    {
      "buffer": 0,
      "byteLength": 48996,
      "byteOffset": 48996,
      "target": 34962
    },
    {
      "buffer": 0,
      "byteLength": 32664,
      "byteOffset": 97992,
      "target": 34962
    },
    {
      "buffer": 0,
      "byteLength": 23850,
      "byteOffset": 130656,
      "target": 34963
    },
    {
      "buffer": 0,
      "byteLength": 2040,
      "byteOffset": 154508,
      "target": 34962
    },
    {
      "buffer": 0,
      "byteLength": 2040,
      "byteOffset": 156548,
      "target": 34962
    },
    {
      "buffer": 0,
      "byteLength": 1360,
      "byteOffset": 158588,
      "target": 34962
    },
    {
      "buffer": 0,
      "byteLength": 816,
      "byteOffset": 159948,
      "target": 34963
    },
    {
      "buffer": 0,
      "byteLength": 28680,
      "byteOffset": 160764,
      "target": 34962
    },
    {
      "buffer": 0,
      "byteLength": 28680,
      "byteOffset": 189444,
      "target": 34962
    },
    {
      "buffer": 0,
      "byteLength": 19120,
      "byteOffset": 218124,
      "target": 34962
    },
    {
      "buffer": 0,
      "byteLength": 22092,
      "byteOffset": 237244,
      "target": 34963
    },
    {
      "buffer": 0,
      "byteLength": 2544,
      "byteOffset": 259336,
      "target": 34962
    },
    {
      "buffer": 0,
      "byteLength": 2544,
      "byteOffset": 261880,
      "target": 34962
    },
    {
      "buffer": 0,
      "byteLength": 1696,
      "byteOffset": 264424,
      "target": 34962
    },
    {
      "buffer": 0,
      "byteLength": 1152,
      "byteOffset": 266120,
      "target": 34963
    },
    {
      "buffer": 0,
      "byteLength": 2544,
      "byteOffset": 267272,
      "target": 34962
    },
    {
      "buffer": 0,
      "byteLength": 2544,
      "byteOffset": 269816,
      "target": 34962
    },
    {
      "buffer": 0,
      "byteLength": 1696,
      "byteOffset": 272360,
      "target": 34962
    },
    {
      "buffer": 0,
      "byteLength": 1152,
      "byteOffset": 274056,
      "target": 34963
    },
    {
      "buffer": 0,
      "byteLength": 59016,
      "byteOffset": 275208,
      "target": 34962
    },
    {
      "buffer": 0,
      "byteLength": 59016,
      "byteOffset": 334224,
      "target": 34962
    },
    {
      "buffer": 0,
      "byteLength": 39344,
      "byteOffset": 393240,
      "target": 34962
    },
    {
      "buffer": 0,
      "byteLength": 36306,
      "byteOffset": 432584,
      "target": 34963
    }
  ],
  "samplers": [
    {
      "magFilter": 9729,
      "minFilter": 9987
    }
  ],
  "buffers": [
    {
      "byteLength": 468892,
      "uri": "metal_toolbox.bin"
    }
  ]
}